<?xml version="1.0" standalone="no"?>
<!DOCTYPE svg PUBLIC "-//W3C//DTD SVG 20010904//EN"
 "http://www.w3.org/TR/2001/REC-SVG-20010904/DTD/svg10.dtd">
<svg version="1.0" xmlns="http://www.w3.org/2000/svg"
 width="403.000000pt" height="471.000000pt" viewBox="0 0 403.000000 471.000000"
 preserveAspectRatio="xMidYMid meet">

<g transform="translate(0.000000,471.000000) scale(0.100000,-0.100000)"
fill="#000000" stroke="none">
<path d="M1935 4489 c-209 -11 -320 -56 -300 -119 10 -31 93 -62 212 -79 102
-15 352 -13 456 3 253 41 245 147 -13 185 -99 14 -220 18 -355 10z m336 -59
c79 -11 141 -31 141 -45 0 -5 -31 -19 -69 -29 -94 -27 -440 -28 -552 -3 -85
19 -102 30 -73 46 65 35 398 53 553 31z"/>
<path d="M586 4199 c-18 -54 -26 -104 -26 -170 0 -230 138 -399 500 -609 8 -5
12 -12 8 -15 -3 -3 -36 6 -74 20 -219 83 -410 253 -516 462 -50 100 -56 94
-57 -48 -2 -169 46 -304 140 -397 100 -98 214 -147 459 -198 141 -29 247 -62
323 -100 68 -35 159 -123 192 -187 l27 -52 -46 -74 c-127 -206 -153 -380 -80
-541 99 -218 327 -342 624 -342 225 0 408 73 533 212 168 187 165 414 -8 686
l-33 51 31 59 c69 130 197 214 394 261 303 71 345 83 425 122 141 69 238 183
274 321 17 67 22 222 9 279 l-7 34 -37 -76 c-99 -200 -282 -372 -483 -455
-151 -62 -155 -52 -13 32 257 154 383 309 410 507 6 49 -8 159 -26 206 -13 33
-12 35 -53 -97 -37 -118 -95 -210 -197 -314 l-87 -89 -59 52 c-156 140 -407
276 -602 326 -46 12 -67 13 -75 5 -22 -22 11 -43 129 -84 133 -47 235 -96 339
-163 95 -61 207 -154 203 -167 -3 -11 -52 -44 -259 -176 -138 -89 -254 -204
-302 -301 -20 -41 -42 -103 -49 -137 -6 -34 -15 -62 -18 -62 -8 0 -140 180
-188 254 -29 47 -31 55 -31 147 0 89 2 98 20 104 22 7 27 44 8 63 -9 9 -78 12
-249 12 -203 0 -240 -2 -253 -16 -23 -22 -20 -41 9 -60 23 -15 25 -22 25 -98
0 -60 -5 -91 -19 -119 -21 -42 -203 -288 -209 -283 -2 2 -10 34 -17 71 -27
126 -124 261 -263 363 -37 27 -129 89 -204 136 -76 48 -141 92 -145 99 -4 6
16 31 47 59 123 110 316 218 496 277 109 36 119 41 122 65 2 18 -1 26 -11 26
-38 0 -202 -56 -302 -104 -133 -63 -220 -118 -333 -210 l-83 -67 -61 53 c-34
29 -78 74 -98 99 -52 66 -115 193 -139 278 -22 80 -28 91 -35 70z m1616 -826
c4 -130 11 -146 135 -313 175 -236 260 -379 288 -487 14 -54 14 -60 -3 -82
-27 -36 -103 -86 -170 -112 -41 -15 -87 -23 -162 -27 -131 -6 -225 15 -415 93
-163 66 -234 85 -324 85 -39 0 -71 4 -71 8 0 5 7 33 16 63 32 108 103 225 278
459 129 174 139 194 144 317 l5 103 137 0 138 0 4 -107z m-611 -1048 c67 -107
195 -204 322 -245 41 -13 49 -30 14 -30 -69 0 -222 68 -288 127 -68 62 -128
165 -115 198 10 27 25 16 67 -50z"/>
<path d="M2027 3144 c-4 -4 -7 -43 -7 -86 l0 -78 -72 0 c-84 0 -101 -8 -96
-41 3 -23 8 -24 83 -29 l80 -5 3 -107 c2 -96 5 -109 23 -119 38 -20 48 3 51
119 l3 107 80 5 80 5 0 30 0 30 -82 3 -82 3 -3 82 c-3 79 -4 82 -28 85 -14 2
-29 0 -33 -4z"/>
<path d="M2012 2594 c-47 -33 -16 -124 43 -124 30 0 75 41 75 68 0 11 -9 31
-21 46 -24 30 -63 34 -97 10z"/>
<path d="M1978 4174 c-66 -35 -76 -119 -32 -267 17 -58 29 -128 33 -192 5 -79
9 -100 21 -100 12 0 16 23 20 125 6 135 11 149 70 220 50 61 60 82 60 125 0
53 -53 105 -106 105 -22 -1 -51 -7 -66 -16z"/>
<path d="M2242 4154 c-17 -12 -22 -25 -22 -60 0 -60 -18 -99 -77 -166 -27 -32
-55 -75 -61 -96 -13 -41 -16 -179 -6 -206 12 -32 24 -15 24 35 0 63 16 118 44
153 11 15 64 48 115 74 108 53 135 85 133 157 0 54 -15 81 -55 105 -39 24 -65
25 -95 4z"/>
<path d="M1752 4113 c-18 -7 -42 -57 -42 -88 0 -37 15 -61 80 -132 69 -73 106
-147 116 -225 11 -97 27 -57 21 51 -4 69 -14 122 -36 189 -17 50 -31 112 -31
135 0 30 -6 49 -18 60 -18 16 -63 21 -90 10z"/>
<path d="M2251 3828 c-63 -31 -103 -97 -99 -163 4 -59 20 -66 29 -13 9 59 33
78 96 78 40 0 58 5 73 20 26 26 25 46 -5 75 -30 30 -38 31 -94 3z"/>
<path d="M1720 3821 c-13 -25 -4 -48 21 -56 22 -7 49 10 49 31 0 17 -28 44
-45 44 -8 0 -19 -9 -25 -19z"/>
<path d="M436 3443 c3 -16 21 -60 40 -100 58 -120 150 -185 319 -224 146 -34
146 -34 72 -37 -45 -2 -96 4 -150 17 -44 12 -83 19 -86 16 -11 -12 57 -90 98
-112 60 -31 115 -30 247 8 224 64 357 31 472 -117 34 -43 37 -45 46 -25 13 30
-10 77 -69 135 -90 90 -184 129 -475 196 -191 44 -281 80 -387 156 -34 25 -75
60 -90 79 -34 42 -45 44 -37 8z"/>
<path d="M3653 3450 c-23 -37 -145 -129 -219 -165 -45 -22 -129 -50 -216 -71
-376 -91 -427 -111 -530 -214 -66 -66 -90 -112 -70 -132 7 -7 27 8 67 51 38
41 78 71 123 93 59 29 73 32 151 31 66 -1 109 -8 185 -32 144 -45 218 -41 279
17 29 27 62 80 54 88 -2 2 -39 -5 -82 -16 -80 -20 -205 -27 -205 -11 0 5 25
12 56 16 228 28 383 147 422 323 11 45 4 54 -15 22z"/>
<path d="M545 3053 c-55 -131 -93 -320 -101 -498 -10 -219 23 -432 97 -627 39
-103 52 -119 76 -95 15 15 16 21 5 50 -35 88 -75 217 -94 304 -19 83 -22 128
-22 298 1 220 15 313 74 484 21 62 26 89 19 103 -15 29 -37 21 -54 -19z"/>
<path d="M3515 3051 c-3 -11 5 -57 19 -103 104 -342 92 -701 -33 -1017 -41
-104 -41 -105 -22 -124 10 -11 24 -17 29 -13 24 15 105 262 132 406 32 166 30
417 -6 594 -18 89 -57 224 -74 255 -14 26 -37 27 -45 2z"/>
<path d="M1050 2986 c-87 -24 -190 -61 -190 -67 0 -16 86 -17 200 -3 119 15
213 12 180 -5 -8 -5 -85 -16 -170 -26 -152 -17 -224 -15 -318 11 -38 11 -16
-21 41 -60 96 -63 171 -71 299 -29 92 30 180 35 286 17 47 -8 62 -8 62 1 0 21
-68 102 -105 125 -75 46 -194 62 -285 36z"/>
<path d="M2850 2984 c-63 -23 -121 -65 -153 -111 -15 -22 -27 -43 -27 -47 0
-5 30 -5 68 0 108 13 181 8 276 -20 106 -31 167 -33 239 -6 51 19 138 82 127
93 -3 3 -34 -1 -70 -9 -36 -7 -85 -14 -110 -14 -43 0 -248 25 -300 37 l-25 6
30 8 c19 6 76 3 155 -7 121 -14 194 -12 206 7 3 5 -3 9 -14 9 -10 0 -58 14
-108 31 -111 38 -227 47 -294 23z"/>
<path d="M1175 2795 c-128 -43 -139 -54 -76 -72 27 -8 51 -9 74 -2 38 10 117
64 117 79 0 14 -68 11 -115 -5z"/>
<path d="M2826 2802 c-3 -6 15 -25 40 -43 56 -38 126 -49 169 -27 l27 15 -73
27 c-84 31 -153 43 -163 28z"/>
<path d="M1322 2769 c-44 -22 -112 -92 -112 -116 0 -17 44 -17 79 1 25 13 121
116 121 130 0 13 -47 5 -88 -15z"/>
<path d="M2745 2726 c51 -61 104 -91 141 -82 20 5 23 10 14 24 -36 62 -108
112 -162 112 l-40 0 47 -54z"/>
<path d="M1294 2215 c-8 -21 2 -45 19 -45 21 0 38 25 31 44 -8 20 -43 21 -50
1z"/>
<path d="M2774 2216 c-9 -24 4 -48 23 -44 12 2 18 12 18 28 0 29 -32 41 -41
16z"/>
<path d="M1186 2105 c-26 -27 -29 -56 -9 -84 26 -34 74 -40 102 -12 27 27 26
51 0 85 -23 30 -68 35 -93 11z"/>
<path d="M2844 2112 c-52 -34 -25 -122 38 -122 34 0 68 31 68 63 0 45 -69 84
-106 59z"/>
<path d="M1367 2033 c-14 -13 -7 -53 11 -62 37 -20 70 27 40 57 -13 13 -41 16
-51 5z"/>
<path d="M2691 2026 c-21 -25 -4 -58 27 -54 23 2 27 8 27 33 0 23 -5 31 -21
33 -11 2 -26 -4 -33 -12z"/>
<path d="M709 1812 c-25 -26 -50 -58 -54 -72 -4 -13 -17 -36 -27 -51 -18 -24
-19 -29 -5 -56 21 -41 88 -70 123 -55 37 18 91 15 98 -4 9 -23 -20 -64 -45
-64 -11 0 -37 9 -58 19 -31 16 -45 18 -81 10 -74 -17 -104 -55 -70 -89 24 -24
52 -25 119 -3 40 12 57 14 75 5 21 -9 32 -6 83 27 68 45 87 65 106 111 26 65
-8 113 -92 128 l-43 7 36 54 c20 29 36 55 36 56 0 2 -15 1 -33 -2 -21 -3 -46
1 -65 11 -45 23 -52 21 -103 -32z m94 -19 c26 -9 47 -20 47 -24 0 -4 -16 -21
-36 -39 -29 -25 -42 -30 -63 -25 -52 13 -67 51 -34 87 20 22 26 22 86 1z m-56
-132 c33 -7 45 -6 54 5 24 29 128 7 142 -30 16 -42 -49 -142 -88 -134 -14 2
-10 10 19 41 38 40 42 52 26 77 -12 20 -127 31 -142 13 -27 -33 -108 7 -108
53 l0 25 28 -20 c15 -11 46 -24 69 -30z m-47 -176 l35 -13 -25 -10 c-54 -21
-86 -23 -100 -7 -10 12 -10 18 0 30 15 18 43 18 90 0z"/>
<path d="M1977 1832 c-12 -13 -14 -21 -6 -29 8 -8 10 -65 7 -183 -4 -141 -7
-173 -21 -187 -15 -15 -16 -14 -10 23 3 21 6 44 6 49 0 6 -1 76 -1 157 l-2
146 -47 -14 c-56 -17 -76 -32 -33 -26 29 4 30 3 30 -31 0 -28 -5 -37 -22 -43
-44 -13 -52 -49 -9 -39 l29 6 7 -63 c3 -35 5 -92 3 -128 -3 -62 -4 -65 -30
-68 -14 -2 -31 -9 -37 -16 -9 -11 -3 -12 35 -5 53 10 183 99 145 99 -21 0 -22
4 -19 88 2 67 6 86 17 84 16 -3 61 25 61 38 0 6 -18 10 -40 10 l-40 0 0 48 0
47 53 -3 c45 -3 55 0 75 21 l23 24 -48 -1 c-26 -1 -62 3 -79 7 -23 6 -34 4
-47 -11z"/>
<path d="M1077 1753 c-4 -3 -7 -19 -7 -33 0 -15 -15 -77 -34 -138 -18 -61 -31
-114 -28 -117 3 -3 13 -5 23 -5 14 0 19 10 21 43 3 41 4 42 40 45 34 3 38 0
44 -25 12 -54 15 -61 31 -67 30 -12 35 10 14 71 -11 33 -25 82 -31 109 -24
107 -30 124 -49 124 -10 0 -21 -3 -24 -7z m38 -135 c7 -36 6 -38 -19 -38 -29
0 -31 7 -14 62 13 43 22 37 33 -24z"/>
<path d="M1228 1754 c-4 -3 -3 -16 2 -29 5 -13 7 -77 4 -144 -3 -80 0 -122 7
-127 23 -14 32 17 31 103 l-2 88 47 -92 c26 -51 53 -93 60 -93 10 0 13 35 13
151 0 137 -2 150 -17 147 -15 -3 -17 -16 -15 -98 l2 -95 -48 95 c-43 86 -66
112 -84 94z"/>
<path d="M1432 1748 c-20 -20 -14 -28 23 -28 l35 0 0 -129 c0 -127 4 -146 32
-136 10 4 12 33 9 135 l-3 130 30 0 c28 0 48 20 35 34 -12 11 -149 6 -161 -6z"/>
<path d="M1648 1733 c-67 -73 -63 -206 7 -261 37 -29 42 -28 80 13 42 44 60
118 44 179 -13 49 -54 96 -84 96 -12 0 -33 -12 -47 -27z m68 -34 c26 -29 32
-135 9 -178 -19 -37 -30 -36 -59 3 -17 22 -21 42 -20 96 1 94 28 125 70 79z"/>
<path d="M2128 1752 c-28 -3 -36 -16 -19 -26 5 -3 9 -57 9 -121 0 -63 3 -119
7 -124 11 -19 74 -30 105 -19 38 13 42 43 5 34 -14 -4 -36 -4 -50 0 -22 6 -25
11 -25 55 l0 49 35 0 c24 0 35 5 35 15 0 10 -11 15 -35 15 -35 0 -35 0 -35 45
l0 45 46 0 c38 0 45 3 42 18 -3 17 -47 22 -120 14z"/>
<path d="M2294 1738 c3 -13 6 -81 6 -151 0 -127 0 -128 23 -125 20 3 22 7 19
61 -3 47 -1 57 12 57 11 0 26 -22 42 -59 25 -57 49 -80 65 -64 5 5 -5 35 -21
67 -35 70 -36 77 -10 101 37 34 18 107 -33 125 -16 5 -48 10 -70 10 -36 0 -39
-2 -33 -22z m94 -24 c14 -9 22 -26 22 -43 0 -31 -12 -45 -47 -55 -22 -7 -23
-5 -23 53 0 66 8 73 48 45z"/>
<path d="M2510 1758 c0 -2 -1 -70 -2 -153 -1 -124 1 -150 13 -150 11 0 15 22
19 100 l5 100 23 -98 c31 -128 47 -129 78 -2 l21 90 4 -95 c4 -87 6 -95 24
-95 13 0 20 6 19 18 0 9 -1 78 -2 153 -2 134 -2 135 -24 132 -20 -3 -26 -16
-48 -105 -13 -57 -27 -103 -30 -103 -3 0 -14 32 -24 71 -35 137 -36 139 -56
139 -11 0 -20 -1 -20 -2z"/>
<path d="M2755 1751 c-3 -5 -1 -12 4 -15 5 -4 9 -63 10 -133 0 -69 4 -130 10
-136 11 -11 103 -13 120 -3 27 17 9 32 -36 32 l-48 -1 -3 53 -3 52 35 0 c25 0
36 4 36 15 0 10 -11 15 -35 15 -35 0 -35 0 -35 45 0 47 -1 46 60 49 15 1 26 8
28 19 3 15 -5 17 -67 17 -38 0 -72 -4 -76 -9z"/>
<path d="M2948 1753 c-2 -5 -1 -73 2 -153 4 -120 8 -145 20 -145 13 0 14 16
11 98 -2 53 0 97 4 97 3 0 27 -43 51 -95 66 -138 75 -131 72 53 -3 123 -5 147
-18 147 -13 0 -14 -15 -11 -92 1 -51 0 -93 -4 -93 -3 0 -26 43 -51 95 -39 84
-65 114 -76 88z"/>
<path d="M3147 1754 c-16 -17 -5 -33 26 -36 l32 -3 1 -123 c1 -68 6 -128 11
-133 18 -18 42 1 38 29 -8 48 -13 166 -7 199 3 25 10 33 31 35 15 2 26 9 26
18 0 12 -16 16 -75 18 -42 1 -79 0 -83 -4z"/>
<path d="M3374 1745 c-76 -53 -71 -239 8 -284 23 -13 29 -13 50 1 56 37 82
148 53 223 -26 68 -68 91 -111 60z m63 -52 c35 -53 15 -203 -27 -203 -23 0
-50 65 -50 122 0 100 39 140 77 81z"/>
<path d="M901 1396 c-27 -32 262 -253 439 -334 102 -47 229 -91 288 -99 40 -5
42 -5 42 20 0 22 -6 28 -42 37 -223 59 -444 178 -624 336 -63 56 -83 64 -103
40z"/>
<path d="M3070 1333 c-150 -130 -337 -234 -527 -293 -94 -29 -103 -34 -103
-56 0 -34 29 -32 158 11 189 63 392 183 552 326 65 58 71 80 22 78 -18 0 -51
-21 -102 -66z"/>
<path d="M2160 1350 c-11 -11 -20 -27 -20 -35 0 -8 9 -24 20 -35 25 -25 45
-25 71 1 22 22 19 55 -9 77 -22 17 -39 15 -62 -8z m58 -33 c4 -20 -25 -34 -40
-19 -15 15 -1 44 19 40 10 -2 19 -11 21 -21z"/>
<path d="M1938 1275 c-37 -21 -58 -64 -58 -120 0 -38 5 -52 29 -75 52 -52 126
-52 177 1 25 26 29 38 29 84 0 48 -4 59 -31 86 -38 38 -103 48 -146 24z m117
-50 c52 -51 16 -145 -54 -145 -39 0 -79 36 -87 77 -5 27 -1 37 24 63 39 38 83
40 117 5z"/>
<path d="M2286 1244 c-42 -42 -10 -114 50 -114 58 0 84 65 44 108 -24 26 -72
29 -94 6z m74 -29 c20 -24 3 -57 -28 -53 -27 3 -39 26 -28 54 7 18 40 18 56
-1z"/>
<path d="M1726 1204 c-9 -8 -16 -22 -16 -30 0 -16 35 -54 50 -54 15 0 50 38
50 53 0 18 -32 47 -53 47 -8 0 -23 -7 -31 -16z m50 -25 c10 -17 -13 -36 -27
-22 -12 12 -4 33 11 33 5 0 12 -5 16 -11z"/>
<path d="M2164 1076 c-48 -22 -78 -71 -79 -130 0 -66 29 -108 90 -132 39 -14
52 -15 87 -5 113 34 143 178 52 247 -41 32 -106 40 -150 20z m112 -45 c45 -27
61 -79 39 -124 -54 -114 -224 -49 -184 71 12 35 59 72 94 72 11 0 34 -9 51
-19z"/>
<path d="M316 1028 c-18 -18 -41 -54 -50 -80 l-18 -47 31 -67 c36 -76 38 -95
14 -135 -21 -34 -45 -44 -73 -29 -21 11 -28 54 -10 65 18 11 10 35 -16 47 -23
11 -29 10 -45 -11 -12 -15 -19 -39 -19 -66 0 -66 56 -115 132 -115 40 0 102
63 119 121 11 36 10 46 -10 92 -48 108 -47 104 -27 142 22 39 40 49 67 35 20
-11 26 -54 9 -65 -17 -11 -11 -24 20 -40 28 -14 30 -14 44 7 38 60 24 121 -37
158 -49 30 -93 26 -131 -12z"/>
<path d="M1770 1030 c-36 -36 -21 -102 26 -120 29 -11 77 9 88 35 29 76 -59
140 -114 85z m80 -25 c7 -8 10 -25 6 -40 -5 -20 -13 -25 -36 -25 -23 0 -31 5
-36 25 -7 29 10 55 36 55 10 0 23 -7 30 -15z"/>
<path d="M3591 1023 c-46 -23 -73 -69 -68 -113 3 -22 38 -88 93 -174 103 -163
125 -180 200 -151 57 22 84 57 84 108 0 34 -14 63 -87 175 -109 170 -143 194
-222 155z m63 -59 c19 -7 176 -255 176 -277 0 -9 -10 -23 -22 -31 -19 -13 -25
-14 -42 -3 -19 13 -84 112 -148 224 l-29 52 20 20 c23 23 23 23 45 15z"/>
<path d="M3365 884 c-44 -24 -84 -45 -89 -47 -5 -2 -6 -15 -2 -30 7 -31 30
-35 63 -12 21 15 23 12 87 -107 35 -68 77 -149 92 -180 28 -57 41 -66 78 -52
9 3 16 12 16 20 0 7 -41 92 -91 188 l-90 175 30 16 c33 17 37 26 21 56 -14 26
-23 24 -115 -27z"/>
<path d="M485 728 c-116 -143 -145 -185 -138 -197 19 -31 50 -24 83 18 l32 40
35 -17 c37 -18 37 -16 17 -104 -5 -23 -2 -29 20 -39 16 -8 30 -9 36 -3 5 5 37
110 71 233 60 215 62 224 44 237 -10 8 -26 14 -35 14 -10 0 -80 -78 -165 -182z
m107 -15 c-15 -45 -30 -84 -34 -88 -10 -11 -50 15 -45 29 6 15 100 146 103
143 1 -1 -10 -39 -24 -84z"/>
<path d="M1945 886 c-13 -19 -14 -29 -6 -45 25 -45 91 -33 91 17 0 54 -56 72
-85 28z m55 -26 c0 -11 -6 -20 -14 -20 -18 0 -29 16 -21 30 11 18 35 11 35
-10z"/>
<path d="M800 798 c-6 -13 -46 -108 -89 -213 -82 -197 -85 -215 -36 -215 23 0
24 3 105 202 13 32 25 56 27 55 1 -2 -2 -48 -7 -103 -5 -54 -10 -123 -10 -152
0 -47 3 -54 26 -64 21 -10 27 -9 35 3 14 23 169 413 169 426 0 14 -47 29 -58
19 -4 -4 -28 -60 -54 -124 l-48 -117 6 115 c3 63 7 125 10 137 9 46 -58 73
-76 31z"/>
<path d="M3190 795 c-11 -14 -7 -33 34 -132 26 -63 45 -117 43 -119 -2 -2 -43
43 -91 101 -88 105 -106 117 -140 92 -17 -13 -13 -27 69 -230 51 -126 93 -217
100 -217 26 0 45 12 45 29 0 10 -18 62 -41 117 -66 162 -63 152 -41 129 10
-11 56 -64 101 -117 46 -54 88 -98 95 -98 7 0 21 6 31 14 17 12 14 24 -68 227
-88 221 -104 244 -137 204z"/>
<path d="M1050 711 c-16 -30 -13 -38 23 -52 17 -7 33 -14 35 -15 3 -2 -56
-198 -103 -341 -12 -37 -12 -45 1 -58 9 -8 24 -15 34 -15 16 0 28 28 70 163
80 253 68 229 111 222 31 -5 39 -3 49 14 6 12 8 26 5 31 -5 8 -190 70 -208 70
-4 0 -11 -9 -17 -19z"/>
<path d="M2885 693 c-44 -14 -83 -29 -86 -34 -5 -9 121 -442 133 -454 3 -4 47
6 97 21 92 27 104 38 82 73 -7 10 -19 12 -47 6 -85 -16 -86 -16 -106 50 -10
33 -18 63 -18 67 0 3 17 12 38 19 50 16 61 26 55 50 -8 28 -14 30 -67 14 -36
-11 -48 -12 -51 -2 -3 7 -11 33 -19 60 -16 53 -16 54 54 77 36 12 44 19 42 35
-7 41 -23 44 -107 18z"/>
<path d="M1329 636 c-37 -21 -52 -60 -90 -234 -32 -148 -32 -153 -16 -188 42
-86 180 -84 215 3 13 32 72 298 72 324 0 29 -21 68 -46 84 -35 23 -104 28
-135 11z m82 -66 c11 -6 19 -21 19 -35 0 -43 -51 -269 -66 -292 -26 -41 -74
-23 -74 27 0 56 58 284 76 297 21 16 20 16 45 3z"/>
<path d="M2678 633 c-16 -4 -18 -20 -18 -161 0 -86 -4 -152 -8 -147 -5 6 -33
70 -62 143 -52 130 -53 132 -84 132 -63 0 -63 2 -17 -231 24 -118 45 -222 47
-231 6 -22 52 -24 60 -4 3 7 -7 69 -22 137 -45 211 -46 211 34 14 47 -114 61
-140 77 -140 19 0 20 7 20 163 -1 89 2 157 5 150 4 -7 17 -73 30 -146 13 -73
29 -137 36 -143 20 -16 54 -1 53 24 0 12 -19 116 -42 232 -41 205 -43 210 -67
212 -14 0 -33 -1 -42 -4z"/>
<path d="M1715 538 c-9 -73 -35 -361 -35 -400 0 -36 1 -38 34 -38 l34 0 6 78
c12 134 10 131 69 134 48 3 52 5 52 28 0 22 -5 25 -42 28 -23 2 -45 8 -50 15
-5 7 -7 38 -5 70 l4 59 61 -4 62 -3 3 31 c3 30 1 31 -44 38 -26 3 -68 6 -95 6
l-48 0 -6 -42z"/>
<path d="M2236 573 l-58 -4 6 -82 c4 -45 11 -143 17 -217 14 -186 13 -182 52
-178 36 3 35 0 27 143 -3 48 -1 61 12 63 11 2 26 -24 55 -95 35 -89 42 -98 67
-101 49 -6 50 9 6 114 l-41 99 20 36 c23 40 27 94 10 152 -16 60 -58 77 -173
70z m93 -77 c18 -22 25 -81 12 -105 -14 -25 -66 -29 -75 -5 -3 9 -6 40 -6 70
0 53 1 54 29 54 16 0 34 -6 40 -14z"/>
<path d="M1950 558 c0 -7 -1 -116 -2 -243 l-3 -230 100 0 100 0 0 30 c0 30 0
30 -62 33 l-63 3 0 74 0 74 48 3 c45 3 47 4 47 33 0 29 -2 30 -47 33 l-48 3 0
65 0 64 61 0 60 0 -3 33 -3 32 -92 3 c-71 2 -93 0 -93 -10z"/>
</g>
</svg>
