<?xml version="1.0" standalone="no"?>
<!DOCTYPE svg PUBLIC "-//W3C//DTD SVG 20010904//EN"
 "http://www.w3.org/TR/2001/REC-SVG-20010904/DTD/svg10.dtd">
<svg version="1.0" xmlns="http://www.w3.org/2000/svg"
 width="398.000000pt" height="468.000000pt" viewBox="0 0 398.000000 468.000000"
 preserveAspectRatio="xMidYMid meet">

<g transform="translate(0.000000,468.000000) scale(0.100000,-0.100000)"
fill="#000000" stroke="none">
<path d="M1956 4540 c-10 -36 -3 -140 9 -143 13 -3 18 93 7 135 -9 33 -9 33
-16 8z"/>
<path d="M1666 4418 c13 -44 54 -118 65 -118 16 0 2 48 -29 97 -29 46 -48 57
-36 21z"/>
<path d="M2243 4429 c-21 -26 -62 -117 -56 -123 13 -13 21 -4 47 54 27 60 32
96 9 69z"/>
<path d="M1940 4271 c-6 -16 -29 -46 -51 -66 -21 -20 -39 -40 -39 -44 0 -5 12
-16 26 -26 23 -15 26 -22 21 -58 -8 -61 -61 -107 -121 -107 -74 0 -118 59 -75
99 18 17 20 23 10 35 -7 8 -23 18 -34 22 -12 4 -38 17 -57 30 -19 13 -42 24
-52 24 -15 0 -16 -4 -4 -37 27 -77 58 -231 65 -318 l6 -90 330 0 330 0 7 65
c14 127 30 216 50 293 11 43 17 81 14 85 -4 4 -22 -2 -39 -12 -18 -11 -49 -28
-70 -39 -45 -23 -57 -45 -34 -59 27 -15 21 -65 -10 -85 -76 -50 -183 14 -183
110 0 31 4 39 25 47 33 13 32 31 -5 58 -16 13 -39 40 -50 62 -24 47 -43 51
-60 11z m59 -375 c18 -20 21 -28 12 -44 -14 -27 -45 -36 -71 -22 -24 13 -26
47 -3 72 22 24 35 23 62 -6z"/>
<path d="M1502 4278 c-28 -28 -3 -66 33 -52 20 8 19 50 -1 58 -20 8 -18 8 -32
-6z"/>
<path d="M2374 4265 c-7 -18 12 -45 32 -45 16 0 33 30 27 48 -7 17 -52 15 -59
-3z"/>
<path d="M895 4099 c-238 -31 -377 -114 -455 -272 -56 -115 -73 -209 -72 -397
1 -85 6 -168 11 -185 6 -20 10 -24 10 -11 5 120 26 319 40 391 67 330 268 444
788 445 172 1 174 13 3 29 -132 12 -225 12 -325 0z"/>
<path d="M2687 4099 c-170 -15 -142 -26 84 -32 257 -7 362 -26 486 -87 168
-83 239 -224 264 -520 22 -262 21 -259 30 -220 13 53 12 316 -1 394 -48 292
-202 428 -530 466 -98 11 -194 11 -333 -1z"/>
<path d="M1055 4016 c-104 -17 -143 -30 -240 -80 -144 -74 -260 -214 -322
-391 -26 -73 -28 -92 -28 -225 0 -124 4 -156 23 -220 26 -82 76 -184 150 -312
78 -131 95 -190 90 -298 -4 -85 -3 -89 11 -63 8 15 16 61 19 100 6 89 -23 181
-99 315 -119 209 -153 317 -153 483 0 128 15 190 77 310 57 112 174 229 277
278 133 63 307 90 513 79 60 -3 97 -1 97 5 0 25 -297 39 -415 19z"/>
<path d="M2533 4018 c-40 -5 -73 -14 -73 -18 0 -5 75 -9 168 -9 247 0 367 -27
494 -110 163 -106 268 -274 299 -479 24 -159 -17 -317 -140 -541 -39 -69 -78
-146 -87 -171 -23 -61 -25 -221 -3 -270 15 -34 16 -32 11 70 -5 128 5 160 108
335 131 223 165 338 157 520 -15 325 -213 577 -516 656 -91 24 -309 33 -418
17z"/>
<path d="M1140 3931 c-62 -20 -128 -57 -180 -101 -47 -40 -22 -38 49 4 105 61
165 79 285 82 59 2 111 5 114 8 2 3 -7 10 -22 16 -43 16 -184 11 -246 -9z"/>
<path d="M2537 3943 c-44 -12 -3 -23 93 -27 122 -5 179 -20 274 -76 75 -44 99
-51 71 -20 -34 38 -141 99 -200 115 -55 14 -196 19 -238 8z"/>
<path d="M1362 3880 c-33 -27 -118 -57 -187 -65 -122 -14 -258 -55 -241 -72 3
-3 43 1 88 10 46 9 117 21 158 27 85 13 153 40 193 77 42 41 33 60 -11 23z"/>
<path d="M2530 3881 c27 -52 107 -86 246 -106 94 -13 144 -23 207 -41 9 -3 17
-1 17 4 0 19 -102 52 -221 71 -98 16 -138 28 -192 55 -55 29 -66 32 -57 17z"/>
<path d="M576 3839 c-32 -37 -36 -75 -7 -60 19 10 43 43 54 74 11 28 -19 20
-47 -14z"/>
<path d="M3310 3858 c0 -23 39 -78 55 -78 23 0 18 25 -11 59 -27 33 -44 40
-44 19z"/>
<path d="M832 3848 c-18 -18 -15 -38 6 -38 21 0 42 18 42 37 0 16 -32 17 -48
1z"/>
<path d="M2415 3851 c-5 -10 104 -85 158 -109 15 -6 45 -12 65 -12 l37 0 -57
24 c-31 13 -74 37 -95 53 -63 50 -96 63 -108 44z"/>
<path d="M3050 3845 c0 -17 46 -42 57 -31 12 11 -12 41 -36 44 -14 2 -21 -2
-21 -13z"/>
<path d="M1405 3809 c-31 -23 -78 -50 -104 -60 l-46 -18 40 -1 c30 0 61 12
120 45 44 25 87 52 95 60 12 13 11 15 -16 15 -20 0 -51 -15 -89 -41z"/>
<path d="M665 3649 c-28 -31 -34 -44 -25 -53 9 -8 20 -1 46 28 33 38 44 66 25
66 -5 0 -25 -18 -46 -41z"/>
<path d="M3210 3672 c0 -20 53 -82 70 -82 27 0 25 9 -11 53 -27 33 -59 49 -59
29z"/>
<path d="M932 3658 c-9 -9 -12 -192 -12 -763 0 -827 -1 -809 62 -928 18 -33
58 -85 89 -117 92 -94 345 -252 719 -450 l175 -93 120 63 c567 297 782 446
864 599 61 115 61 112 61 933 0 729 0 748 -19 758 -30 16 -2043 14 -2059 -2z
m1969 -375 c1 -153 3 -456 5 -673 1 -217 -1 -421 -6 -454 -32 -206 -177 -329
-730 -622 l-203 -108 -111 57 c-186 94 -415 225 -531 302 -196 130 -271 224
-294 366 -12 74 -14 441 -4 1012 l6 397 934 0 933 0 1 -277z"/>
<path d="M1848 3513 c-106 -40 -183 -123 -215 -232 -27 -95 -3 -210 61 -294
14 -19 26 -36 26 -39 0 -3 -22 -18 -48 -35 -60 -37 -105 -104 -127 -191 -10
-37 -21 -70 -25 -74 -6 -8 -88 10 -142 31 l-28 10 44 45 c35 35 46 55 56 99 6
31 10 75 8 99 l-3 43 -169 3 -168 2 4 -88 c4 -96 25 -147 71 -171 21 -11 24
-18 20 -56 -4 -28 1 -54 12 -78 24 -50 17 -79 -23 -96 -24 -11 -32 -21 -30
-35 3 -19 11 -21 102 -24 93 -3 126 5 126 28 0 5 -16 18 -35 30 -19 12 -35 28
-35 35 0 22 182 -67 191 -93 7 -18 14 -21 41 -16 35 7 168 72 207 103 36 27
19 44 -26 26 -19 -8 -37 -15 -39 -15 -8 0 -3 137 6 197 6 34 19 90 30 126 18
57 23 65 52 74 31 9 36 7 75 -35 41 -44 43 -45 93 -40 38 4 58 12 80 33 l30
29 0 -25 c0 -14 -7 -51 -15 -82 -20 -77 -20 -94 1 -76 25 20 42 62 50 119 7
50 8 51 20 29 36 -66 59 -198 69 -404 6 -123 12 -144 39 -145 4 0 6 42 5 93
l-4 92 52 3 52 3 7 -46 c4 -27 11 -44 18 -42 27 9 13 225 -21 327 -22 65 -68
126 -113 152 -22 13 -40 27 -40 32 0 5 16 26 35 47 46 51 80 160 72 235 -17
168 -156 296 -327 302 -52 1 -89 -3 -122 -15z m215 -43 c180 -67 250 -276 146
-434 -40 -59 -70 -79 -104 -66 l-26 10 35 41 c116 136 72 346 -83 398 -77 25
-167 7 -225 -47 -88 -83 -89 -253 -2 -346 33 -36 33 -52 0 -60 -55 -14 -133
101 -141 209 -9 117 57 228 169 284 75 38 150 41 231 11z m-15 -100 c17 -11
32 -21 32 -23 0 -1 -54 -2 -120 -2 -66 0 -120 1 -120 3 0 1 15 11 33 22 21 14
50 20 87 20 37 0 66 -6 88 -20z m-130 -72 c-6 -18 -50 -48 -94 -63 -36 -12
-39 -12 -42 5 -5 30 16 58 45 63 60 9 95 7 91 -5z m167 1 c42 -12 55 -23 55
-51 0 -35 -118 -7 -160 38 l-23 24 44 0 c24 0 62 -5 84 -11z m-100 -63 c20
-14 49 -27 65 -31 27 -6 30 -10 30 -48 0 -53 -29 -117 -65 -145 -74 -59 -178
13 -186 128 -3 50 1 59 35 70 18 6 42 20 51 30 23 25 27 25 70 -4z m-196 -68
c-1 -41 -1 -42 -11 -15 -5 15 -7 34 -4 42 10 27 16 16 15 -27z m351 0 c-1 -13
-7 -36 -16 -53 -12 -26 -14 -27 -9 -5 2 14 5 37 5 53 0 15 5 27 10 27 6 0 10
-10 10 -22z m-171 -215 c14 3 34 9 44 12 25 10 23 -29 -3 -55 -42 -42 -140 -8
-140 49 0 19 2 19 37 5 20 -9 48 -13 62 -11z m-549 -28 c0 -23 -4 -25 -47 -25
-27 0 -65 -5 -87 -11 -66 -18 -147 9 -133 45 5 14 25 16 137 16 l130 0 0 -25z
m802 -55 c50 -42 95 -137 107 -230 11 -79 7 -90 -34 -90 -56 0 -62 8 -69 86
-6 63 -22 141 -52 242 -9 30 4 28 48 -8z m-522 6 c0 -3 -7 -33 -15 -68 -8 -35
-19 -117 -25 -183 -12 -130 -25 -155 -76 -155 -28 0 -28 0 -14 138 11 117 31
178 76 231 31 35 54 51 54 37z m-357 -64 c66 -6 72 -18 27 -55 -42 -36 -82
-42 -127 -20 -42 20 -83 74 -83 109 l0 23 63 -26 c34 -14 88 -28 120 -31z m77
44 c0 -25 -20 -29 -82 -16 -71 16 -60 30 25 30 43 0 57 -4 57 -14z m-110 -187
c24 -45 -19 -98 -55 -69 -15 13 -21 71 -8 83 14 15 53 6 63 -14z m110 -39 c30
-11 67 -19 83 -20 26 0 27 -2 27 -50 0 -34 -5 -52 -14 -56 -23 -9 -178 67
-171 83 3 8 5 26 5 39 0 29 0 29 70 4z m-107 -137 l20 -23 -47 0 c-43 0 -46 1
-32 16 9 8 19 27 23 42 6 23 8 24 11 7 2 -11 13 -30 25 -42z"/>
<path d="M2543 3464 c-15 -24 -15 -29 -2 -53 28 -50 99 -28 99 31 0 48 -69 64
-97 22z m43 -40 c-5 -13 -10 -14 -18 -6 -6 6 -8 18 -4 28 5 13 10 14 18 6 6
-6 8 -18 4 -28z"/>
<path d="M1197 3452 c-25 -27 -22 -78 5 -96 46 -33 108 -7 108 45 0 58 -76 92
-113 51z m63 -27 c17 -20 5 -45 -20 -45 -23 0 -35 22 -26 45 7 19 30 19 46 0z"/>
<path d="M2672 3403 c2 -17 9 -28 18 -28 9 0 16 11 18 28 3 22 -1 27 -18 27
-17 0 -21 -5 -18 -27z"/>
<path d="M2576 3343 c-4 -9 0 -23 8 -31 12 -12 16 -12 25 7 7 12 9 26 6 31
-10 16 -32 12 -39 -7z"/>
<path d="M2640 3336 c0 -14 5 -26 10 -26 6 0 10 7 10 15 0 8 0 18 1 22 0 4 -4
9 -10 11 -6 2 -11 -8 -11 -22z"/>
<path d="M1340 3336 c-27 -33 18 -72 48 -42 13 13 14 20 6 34 -15 23 -38 26
-54 8z m34 -27 c-3 -5 -10 -7 -15 -3 -5 3 -7 10 -3 15 3 5 10 7 15 3 5 -3 7
-10 3 -15z"/>
<path d="M1242 3288 c-25 -25 -7 -68 29 -68 25 0 42 26 35 55 -7 27 -42 35
-64 13z m38 -23 c0 -8 -4 -15 -10 -15 -5 0 -10 7 -10 15 0 8 5 15 10 15 6 0
10 -7 10 -15z"/>
<path d="M2554 3227 c1 -46 -4 -59 -35 -102 -53 -73 -79 -129 -79 -172 0 -131
199 -200 310 -107 86 73 77 147 -37 304 -21 30 -24 42 -19 83 l5 47 -73 0 -74
0 2 -53z m108 -21 c4 -31 20 -65 56 -117 72 -105 73 -115 20 -139 -24 -11 -55
-20 -70 -20 -27 0 -165 46 -182 61 -6 5 5 30 24 61 55 86 80 140 80 170 0 25
3 28 34 28 32 0 34 -2 38 -44z"/>
<path d="M2618 3098 c-2 -15 -11 -24 -25 -26 -28 -4 -31 -22 -4 -22 12 0 21
-9 25 -25 8 -32 26 -33 26 -1 0 16 7 26 21 29 23 6 17 27 -7 27 -8 0 -14 9
-14 20 0 27 -18 25 -22 -2z"/>
<path d="M2695 2984 c-49 -18 -67 -34 -38 -34 28 0 93 28 93 40 0 13 -6 12
-55 -6z"/>
<path d="M2747 3232 c-22 -24 -22 -42 1 -42 27 0 44 16 40 35 -4 26 -22 29
-41 7z"/>
<path d="M2467 3233 c-24 -24 22 -64 49 -42 13 10 12 14 -2 30 -18 20 -36 24
-47 12z"/>
<path d="M1330 3210 c-43 -43 -31 -112 24 -139 85 -41 163 72 96 139 -27 27
-93 27 -120 0z m64 -43 c17 -46 -32 -79 -54 -36 -9 16 -8 26 5 45 19 30 37 27
49 -9z"/>
<path d="M1166 3168 c-9 -12 -16 -30 -16 -39 0 -38 70 -65 98 -37 18 18 14 63
-6 81 -26 23 -58 21 -76 -5z m62 -31 c4 -20 -25 -34 -40 -19 -15 15 -1 44 19
40 10 -2 19 -11 21 -21z"/>
<path d="M1263 3063 c-22 -8 -15 -51 8 -58 27 -9 42 6 37 36 -3 24 -21 32 -45
22z m27 -22 c0 -6 -4 -13 -10 -16 -5 -3 -10 1 -10 9 0 9 5 16 10 16 6 0 10 -4
10 -9z"/>
<path d="M1936 2734 c-3 -9 -6 -40 -6 -70 l0 -54 -54 0 c-70 0 -86 -7 -86 -36
0 -22 4 -23 68 -26 l67 -3 0 -131 c0 -124 -1 -132 -26 -170 -14 -22 -45 -52
-68 -67 -22 -15 -60 -39 -83 -54 -120 -80 -142 -222 -48 -315 44 -45 56 -47
72 -13 10 22 8 27 -16 46 -88 69 -65 184 52 250 152 86 180 135 189 327 l6
131 66 3 c63 3 66 4 66 28 0 24 -3 25 -67 28 -56 2 -68 6 -69 20 -1 40 -10
105 -15 113 -9 15 -41 10 -48 -7z"/>
<path d="M2669 2625 c-133 -49 -299 -214 -330 -327 -23 -87 32 -131 126 -103
72 21 194 105 264 181 137 149 147 265 24 263 -27 0 -64 -6 -84 -14z m68 -51
c16 -15 21 -24 12 -21 -10 3 -35 11 -58 18 -48 14 -54 29 -12 29 18 0 41 -10
58 -26z m-88 -65 c24 -17 41 -33 38 -35 -4 -4 -136 35 -147 43 -8 7 24 23 46
23 12 0 40 -14 63 -31z m-82 -85 c42 -32 43 -48 1 -29 -18 8 -52 19 -76 25
-37 10 -42 13 -31 26 17 21 62 11 106 -22z m-94 -79 c54 -37 46 -46 -20 -22
-69 25 -67 23 -58 36 10 18 38 13 78 -14z"/>
<path d="M1785 2457 c-4 -8 7 -27 25 -45 26 -26 29 -35 20 -52 -14 -26 -56
-26 -70 -1 -5 11 -10 36 -10 55 0 25 -5 36 -15 36 -19 0 -35 -31 -35 -68 0
-16 -7 -35 -16 -43 -44 -37 -59 -141 -28 -202 22 -44 21 -43 48 -18 22 21 23
25 10 49 -18 35 -18 76 2 113 11 23 20 29 32 23 9 -4 34 -9 54 -12 75 -9 118
84 66 142 -28 31 -75 45 -83 23z"/>
<path d="M1261 2341 c-12 -8 -13 -15 -4 -34 13 -28 55 -47 61 -28 12 36 62
-24 62 -76 0 -24 -38 -49 -53 -34 -16 16 -63 13 -81 -4 -34 -34 -28 -83 13
-104 13 -7 17 -18 14 -36 -4 -19 2 -32 26 -54 22 -20 31 -38 31 -60 0 -33 22
-51 64 -51 30 0 66 35 66 65 0 12 11 31 25 43 14 12 25 33 25 46 0 14 13 38
30 54 35 36 37 50 9 86 -21 27 -56 34 -87 17 -28 -15 -56 12 -48 46 14 55 32
72 70 66 28 -4 36 -1 46 17 10 18 9 25 -3 37 -21 21 -81 1 -109 -37 l-21 -29
-20 26 c-11 14 -35 32 -53 39 -39 16 -44 17 -63 5z m57 -223 c2 -19 -2 -28
-18 -33 -37 -12 -64 27 -38 53 21 21 53 10 56 -20z m107 -3 c0 -24 -5 -31 -24
-33 -31 -5 -45 11 -37 43 5 21 12 26 34 23 23 -2 27 -8 27 -33z m106 19 c9
-11 10 -20 2 -32 -15 -24 -44 -27 -59 -7 -28 38 27 75 57 39z m-167 -90 c9 -8
16 -19 16 -24 0 -13 -30 -40 -44 -40 -17 0 -36 21 -36 40 0 19 19 40 36 40 7
0 20 -7 28 -16z m100 10 c21 -8 21 -48 0 -65 -31 -26 -70 25 -44 56 14 17 21
18 44 9z m-41 -116 c22 -34 -36 -66 -62 -34 -9 11 -10 20 -1 36 13 25 47 24
63 -2z"/>
<path d="M2081 2296 c-46 -25 -63 -88 -40 -140 6 -13 39 -47 74 -74 103 -83
119 -154 50 -230 -32 -36 -34 -50 -9 -80 1 -2 14 4 29 14 32 21 71 87 80 136
13 69 -1 97 -93 186 -80 77 -85 84 -76 110 12 34 56 42 86 15 16 -15 19 -27
15 -66 -3 -40 -1 -50 17 -63 19 -13 22 -13 33 3 7 9 13 40 13 67 0 56 -23 101
-62 122 -30 17 -87 17 -117 0z"/>
<path d="M2662 2199 c-81 -24 -206 -107 -271 -181 -128 -145 -98 -257 57 -213
160 46 372 234 372 331 0 62 -68 89 -158 63z m56 -45 c36 -25 25 -34 -18 -15
-52 23 -59 31 -29 31 14 0 35 -7 47 -16z m-68 -79 c14 -15 21 -26 15 -24 -5 2
-39 15 -73 28 -61 23 -63 25 -41 37 28 15 60 1 99 -41z m-109 -57 c46 -33 41
-50 -8 -24 -16 8 -46 17 -66 21 -30 6 -35 10 -26 21 18 22 53 16 100 -18z
m-98 -74 c50 -34 41 -41 -23 -18 -49 18 -57 24 -43 37 11 12 28 8 66 -19z"/>
<path d="M1926 2101 c-24 -26 -17 -62 16 -80 24 -14 28 -14 47 3 23 21 28 65
9 84 -18 18 -53 14 -72 -7z"/>
<path d="M1770 2035 c-18 -22 -8 -37 53 -73 49 -29 58 -32 76 -20 12 7 21 15
21 18 0 8 -117 90 -128 90 -5 0 -15 -7 -22 -15z"/>
<path d="M2095 2034 c-11 -8 -62 -40 -114 -71 -155 -93 -206 -162 -199 -265 9
-129 135 -203 253 -149 113 51 135 173 54 286 -37 52 -69 69 -95 51 -16 -12
-15 -15 12 -50 16 -20 32 -36 35 -36 12 0 39 -67 39 -95 0 -67 -70 -123 -138
-110 -21 4 -49 20 -69 40 -27 27 -33 40 -33 78 0 78 20 98 238 237 45 29 82
56 82 60 0 7 -34 40 -41 40 -2 0 -13 -8 -24 -16z"/>
<path d="M1746 1924 c-7 -19 10 -44 30 -44 20 0 36 34 22 48 -17 17 -45 15
-52 -4z"/>
<path d="M2110 1925 c-16 -20 -6 -45 19 -45 22 0 46 34 36 50 -9 15 -41 12
-55 -5z"/>
<path d="M1877 1773 c-17 -17 -5 -42 26 -52 17 -6 54 -22 81 -36 27 -13 52
-22 57 -19 16 9 10 33 -11 46 -23 15 -27 30 -5 22 11 -5 15 1 15 20 0 26 -1
26 -78 26 -43 0 -82 -3 -85 -7z"/>
<path d="M723 3598 c-78 -82 -110 -139 -129 -229 -27 -132 -8 -216 107 -463
90 -192 119 -290 126 -431 8 -135 21 -113 22 36 1 132 -19 217 -90 370 -112
246 -122 276 -127 380 -6 135 15 191 144 367 35 47 5 30 -53 -30z"/>
<path d="M3140 3643 c0 -4 21 -33 46 -65 78 -100 107 -170 112 -268 5 -112
-13 -178 -98 -362 -79 -169 -104 -244 -120 -359 -12 -86 -5 -219 11 -219 5 0
9 30 9 68 0 147 30 255 133 477 76 164 93 211 107 300 21 131 -23 263 -124
373 -53 57 -76 73 -76 55z"/>
<path d="M781 3537 c-88 -136 -103 -274 -46 -442 42 -122 61 -127 30 -6 -45
177 -40 257 26 405 22 48 38 93 37 98 -2 6 -23 -19 -47 -55z"/>
<path d="M3103 3573 c3 -10 22 -56 43 -103 50 -112 56 -199 24 -353 -12 -60
-20 -111 -17 -113 7 -8 54 128 68 195 23 118 2 213 -74 339 -30 51 -55 70 -44
35z"/>
<path d="M813 3388 c-27 -50 -24 -173 7 -268 16 -48 24 -99 25 -142 0 -69 8
-87 19 -45 12 45 6 141 -15 226 -21 85 -23 199 -4 244 13 31 -14 18 -32 -15z"/>
<path d="M3086 3395 c25 -107 24 -132 -11 -270 -16 -64 -19 -132 -9 -184 10
-51 19 -36 20 37 1 39 13 104 28 156 37 126 32 214 -15 268 l-20 23 7 -30z"/>
<path d="M398 2948 c13 -147 11 -463 -5 -595 -8 -72 11 -69 26 5 35 171 39
316 16 513 -30 257 -59 316 -37 77z"/>
<path d="M3522 3058 c-44 -176 -52 -505 -17 -673 24 -114 39 -121 31 -15 -16
228 -18 385 -6 548 7 95 10 175 8 178 -3 2 -10 -15 -16 -38z"/>
<path d="M500 2844 c1 -21 5 -97 10 -169 5 -71 6 -196 3 -277 -6 -144 -7 -147
-27 -142 -12 3 -34 0 -49 -5 -22 -9 -27 -17 -27 -44 0 -21 8 -41 20 -52 20
-18 20 -18 -10 -36 -36 -23 -38 -34 -6 -54 l25 -16 -25 -36 c-57 -84 -13 -122
104 -87 18 5 22 2 22 -15 0 -55 53 -111 88 -92 19 10 62 89 62 114 0 14 4 14
40 0 31 -12 50 -14 78 -7 34 9 37 12 36 46 -1 44 -34 92 -74 110 -33 14 -39
28 -13 28 9 0 33 18 55 40 32 35 38 47 38 85 0 55 -21 70 -72 53 -18 -6 -38
-15 -44 -19 -13 -11 -24 -1 -24 21 0 26 -68 157 -85 164 -19 7 -20 -22 -1 -43
17 -20 66 -138 66 -161 0 -9 -5 -32 -12 -50 l-11 -34 -18 55 c-11 30 -16 66
-13 82 4 20 2 27 -8 25 -7 -2 -13 6 -14 17 -3 53 -4 59 -13 49 -6 -5 -6 -27
-2 -51 9 -47 5 -58 -16 -42 -18 16 -16 5 7 -41 24 -47 25 -57 5 -40 -8 6 -19
9 -25 5 -13 -8 -13 -13 -15 235 -1 180 -5 231 -23 314 -25 111 -32 128 -32 70z
m330 -597 c0 -33 -20 -71 -48 -94 -23 -19 -37 -16 -20 5 18 21 40 73 34 79 -2
2 -12 -9 -22 -26 -19 -32 -33 -40 -35 -18 -1 6 -4 -1 -8 -17 -7 -35 -25 -37
-29 -3 -4 29 27 69 70 90 48 24 58 21 58 -16z m-294 -32 c29 -12 74 -58 74
-76 0 -17 -24 -9 -45 14 -11 13 -16 17 -11 10 15 -22 -10 -15 -43 13 -24 20
-31 22 -31 10 0 -9 6 -16 13 -16 8 0 24 -11 37 -25 13 -14 29 -25 37 -25 7 0
13 -4 13 -10 0 -5 -15 -10 -34 -10 -28 0 -42 8 -75 46 -45 51 -50 68 -23 83
18 11 34 8 88 -14z m104 -61 c0 -8 -4 -12 -10 -9 -5 3 -10 10 -10 16 0 5 5 9
10 9 6 0 10 -7 10 -16z m60 -29 c0 -8 -4 -15 -9 -15 -13 0 -22 16 -14 24 11
11 23 6 23 -9z m-230 -30 c0 -9 -9 -15 -25 -15 -31 0 -33 17 -2 23 12 2 23 5
25 6 1 0 2 -6 2 -14z m188 -13 c4 -28 -24 -40 -45 -19 -14 13 -14 19 -3 32 18
22 44 15 48 -13z m-103 -12 c3 -5 1 -10 -4 -10 -6 0 -11 -7 -11 -15 0 -17 -36
-39 -50 -30 -6 3 -10 -1 -10 -9 0 -9 -5 -16 -12 -16 -6 0 -9 -3 -5 -6 3 -4 22
4 42 16 40 25 50 22 40 -10 -14 -45 -135 -85 -135 -45 0 60 121 164 145 125z
m193 -9 c63 -32 104 -105 65 -113 -56 -12 -133 28 -133 68 0 24 19 15 26 -11
3 -14 10 -25 15 -25 13 0 11 14 -3 28 -7 7 -8 12 -2 12 6 0 19 -9 29 -20 10
-11 25 -20 33 -20 12 0 12 3 -4 15 -14 11 -15 14 -4 15 8 0 0 8 -17 16 -18 9
-30 20 -27 25 3 5 -4 9 -15 9 -12 0 -21 5 -21 10 0 15 16 12 58 -9z m-178 -15
c0 -3 -4 -8 -10 -11 -5 -3 -10 -1 -10 4 0 6 5 11 10 11 6 0 10 -2 10 -4z m36
-53 c-3 -16 -2 -46 3 -68 l7 -40 9 50 c5 28 9 53 11 58 1 4 2 12 3 18 2 23 20
-3 26 -40 5 -29 1 -50 -15 -85 -26 -54 -52 -60 -75 -16 -19 38 -19 71 2 115
20 42 37 46 29 8z"/>
<path d="M508 2043 c7 -3 16 -2 19 1 4 3 -2 6 -13 5 -11 0 -14 -3 -6 -6z"/>
<path d="M3404 2798 c-14 -56 -19 -129 -22 -313 -3 -200 -6 -243 -19 -257 -9
-10 -20 -18 -24 -18 -15 0 -15 35 0 60 12 19 13 22 2 16 -11 -7 -13 -3 -7 19
l7 27 -29 -23 c-21 -17 -27 -28 -19 -36 6 -9 6 -13 -2 -13 -6 0 -11 -10 -11
-22 0 -29 -16 -55 -27 -44 -18 18 -8 111 19 169 31 66 54 77 43 20 -4 -21 -11
-39 -16 -41 -11 -5 -12 -22 -1 -22 5 0 14 11 20 25 20 44 13 105 -13 105 -14
0 -78 -118 -89 -161 l-6 -27 -37 19 c-67 34 -93 21 -93 -47 0 -48 31 -94 82
-120 l29 -15 -33 -22 c-40 -28 -78 -82 -78 -113 0 -42 60 -57 124 -30 l34 14
5 -34 c8 -49 43 -94 73 -94 26 0 60 44 70 92 6 26 7 26 40 12 96 -40 145 8 90
89 -19 27 -21 37 -11 41 8 3 19 14 25 25 9 18 7 23 -18 38 l-29 18 19 30 c36
59 10 104 -53 91 l-29 -5 -2 87 c-4 130 -3 181 5 365 4 92 5 167 3 167 -3 0
-12 -33 -22 -72z m-254 -528 c19 0 80 -63 80 -82 0 -11 7 -26 15 -35 17 -17
16 -34 -3 -41 -7 -2 -12 6 -12 18 0 12 -4 18 -10 15 -5 -3 -10 1 -10 10 0 9
-4 14 -9 11 -5 -3 -21 13 -36 35 -29 45 -41 47 -25 5 5 -15 8 -31 5 -36 -3 -5
4 -11 15 -15 11 -3 20 -11 20 -16 0 -18 -19 -8 -49 26 -42 48 -44 126 -3 110
7 -3 18 -5 22 -5z m350 -56 c0 -36 -84 -114 -123 -114 -40 0 -38 11 10 44 26
17 48 37 49 44 1 7 0 8 -3 2 -2 -5 -11 -10 -19 -10 -8 0 -14 -6 -14 -12 0 -9
-3 -8 -10 2 -7 12 -13 11 -34 -9 -37 -34 -45 -17 -11 19 34 35 111 62 138 48
9 -5 17 -11 17 -14z m-196 -59 c-4 -8 -10 -13 -15 -10 -4 3 -6 12 -3 20 4 8
10 13 15 10 4 -3 6 -12 3 -20z m16 -76 c0 -28 -30 -36 -47 -13 -12 16 -12 20
3 31 21 15 44 6 44 -18z m140 17 c0 -3 -4 -8 -10 -11 -5 -3 -10 -1 -10 4 0 6
5 11 10 11 6 0 10 -2 10 -4z m40 -5 c0 -12 -20 -25 -27 -18 -7 7 6 27 18 27 5
0 9 -4 9 -9z m-265 -32 c-4 -5 -15 -9 -25 -9 -10 0 -22 -4 -25 -10 -3 -5 2
-10 12 -10 16 -1 16 -2 -2 -12 -25 -14 -45 -34 -45 -44 0 -4 9 1 21 12 17 16
22 16 29 4 7 -11 10 -12 10 -2 0 17 29 46 37 38 10 -10 -31 -59 -61 -74 -30
-15 -86 -7 -86 11 0 29 43 79 82 97 41 18 64 18 53 -1z m205 -4 c30 -15 80
-79 80 -102 0 -37 -107 -15 -130 26 -6 12 -7 21 -1 21 5 0 17 3 27 7 11 4 15
3 10 -5 -3 -6 -2 -13 3 -16 11 -7 22 17 13 30 -4 5 -14 9 -22 9 -9 0 -14 7
-12 19 2 13 -1 17 -11 13 -7 -3 -20 -1 -28 4 -25 16 39 10 71 -6z m-62 -33 c6
-18 -15 -14 -22 4 -4 10 -1 14 6 12 6 -2 14 -10 16 -16z m-22 -36 c20 -41 13
-93 -17 -125 -28 -29 -40 -23 -63 31 -19 47 -16 118 6 118 5 0 8 -7 4 -15 -3
-8 -1 -15 4 -15 6 0 10 -15 11 -32 0 -18 4 -42 9 -53 6 -15 9 -9 9 27 1 27 6
48 14 51 10 4 10 7 0 18 -16 16 -17 29 -3 29 6 0 18 -15 26 -34z"/>
<path d="M627 2673 c-11 -11 -8 -38 7 -59 11 -15 17 -16 27 -7 9 9 9 19 -1 42
-12 31 -21 37 -33 24z"/>
<path d="M3275 2656 c-18 -27 -13 -60 8 -54 19 7 33 56 20 69 -8 8 -16 4 -28
-15z"/>
<path d="M398 1864 c-3 -5 -11 -74 -18 -154 -24 -289 28 -494 150 -590 97 -76
219 -116 390 -126 140 -9 124 7 -46 46 -71 16 -149 36 -174 45 -73 25 -146 82
-189 146 -70 105 -90 202 -92 449 0 144 -8 207 -21 184z"/>
<path d="M3517 1856 c-4 -10 -7 -79 -7 -155 0 -293 -48 -466 -151 -544 -78
-57 -143 -82 -327 -122 -148 -32 -157 -49 -22 -41 313 19 474 135 527 379 24
115 6 552 -20 483z"/>
<path d="M487 1854 c-12 -13 -8 -190 8 -262 29 -142 78 -242 162 -333 70 -75
158 -134 240 -159 111 -34 112 -21 3 32 -227 111 -348 296 -381 580 -13 116
-21 153 -32 142z"/>
<path d="M3427 1846 c-4 -10 -7 -35 -7 -56 0 -60 -28 -205 -55 -281 -64 -183
-183 -310 -372 -396 -73 -33 -48 -42 38 -13 162 55 306 198 368 365 43 116 66
319 42 379 -7 18 -8 18 -14 2z"/>
<path d="M805 1827 c-44 -14 -79 -31 -87 -42 -4 -5 -12 -11 -18 -11 -5 -1 -15
-2 -21 -3 -5 0 -16 -16 -24 -33 -7 -18 -23 -41 -35 -51 -19 -16 -21 -24 -15
-65 4 -26 9 -58 10 -72 1 -14 10 -47 20 -73 15 -41 27 -54 71 -78 41 -23 54
-36 56 -57 3 -25 8 -28 58 -34 65 -9 108 5 112 35 2 13 14 24 33 30 40 13 80
52 108 104 12 24 30 59 39 76 21 40 22 71 3 87 -8 7 -15 27 -15 46 0 33 -21
64 -43 64 -7 0 -24 14 -39 30 -14 17 -36 30 -47 30 -12 0 -32 7 -45 15 -25 17
-71 17 -121 2z m123 -27 c68 -30 77 -35 80 -52 5 -28 -29 -30 -50 -3 -10 13
-37 29 -59 35 -35 10 -47 8 -84 -10 -45 -22 -65 -20 -65 5 0 9 15 17 40 21 22
4 43 11 46 15 9 15 42 10 92 -11z m2 -60 c24 -24 26 -45 4 -36 -11 4 -14 1
-10 -12 4 -12 -8 -31 -38 -60 -48 -47 -60 -44 -72 19 -4 19 -13 37 -20 42 -33
19 26 66 84 67 19 0 40 -8 52 -20z m-192 -13 c15 -16 19 -30 15 -47 -6 -23 -5
-24 12 -10 17 14 18 13 11 -22 -5 -30 -4 -38 7 -38 8 0 20 -13 26 -28 9 -22 9
-35 -4 -66 -15 -36 -17 -37 -29 -20 -24 35 -47 106 -41 125 4 10 2 19 -4 19
-14 0 -24 -36 -16 -60 5 -16 2 -20 -17 -20 -52 0 -65 10 -71 53 -5 35 -2 44
19 64 13 12 24 28 24 36 0 16 20 37 35 37 6 0 21 -10 33 -23z m332 -22 c7 -8
10 -24 7 -35 -3 -11 3 -29 14 -41 17 -20 18 -24 4 -45 -8 -13 -15 -30 -15 -39
0 -9 -7 -18 -15 -21 -9 -4 -13 -14 -11 -23 9 -29 -55 -91 -115 -111 -59 -20
-74 -18 -59 10 6 12 26 21 56 26 32 4 42 10 35 17 -7 7 -21 7 -46 0 -19 -6
-35 -7 -35 -3 0 17 56 48 98 55 23 4 42 11 42 17 0 7 -14 8 -35 5 -19 -3 -35
-4 -35 -2 0 2 24 17 54 34 30 17 56 38 60 46 8 23 -16 30 -30 9 -40 -57 -54
-58 -47 -1 7 51 -8 40 -25 -19 -8 -27 -27 -55 -58 -82 -25 -23 -48 -42 -51
-42 -2 0 -2 19 2 43 13 76 65 154 65 96 0 -11 5 -17 10 -14 6 3 10 21 10 38 0
36 13 62 27 54 5 -3 22 5 39 18 35 29 38 29 54 10z m-374 -175 c39 -20 82 -65
71 -77 -3 -2 -20 3 -37 12 -18 9 -41 14 -52 12 -19 -5 -38 24 -38 59 0 18 6
18 56 -6z m154 -6 c-6 -14 -10 -53 -10 -87 0 -48 -3 -58 -12 -49 -17 17 -15
80 5 125 18 42 32 51 17 11z m-65 -113 c9 -22 0 -23 -41 -6 -44 18 -76 44 -69
56 7 11 103 -33 110 -50z m125 -59 c0 -15 -43 -27 -82 -24 -54 5 -47 20 8 20
25 0 48 3 52 6 8 9 22 7 22 -2z"/>
<path d="M815 1720 c-3 -5 -1 -10 4 -10 6 0 11 5 11 10 0 6 -2 10 -4 10 -3 0
-8 -4 -11 -10z"/>
<path d="M662 1644 c-11 -12 -10 -20 7 -47 22 -34 26 -22 12 34 -5 23 -8 25
-19 13z"/>
<path d="M3001 1804 c-76 -13 -138 -29 -142 -36 -13 -20 -11 -35 7 -53 15 -15
15 -18 -4 -38 -32 -34 -35 -66 -17 -188 27 -181 52 -215 159 -212 34 1 95 9
136 18 138 29 152 53 125 224 -21 138 -37 183 -71 202 -22 11 -24 17 -19 50 5
31 3 39 -14 48 -11 6 -21 11 -23 10 -2 -1 -63 -12 -137 -25z m99 -30 c0 -8 -4
-14 -10 -14 -5 0 -10 9 -10 21 0 11 5 17 10 14 6 -3 10 -13 10 -21z m48 14
c-6 -18 -28 -21 -28 -4 0 9 7 16 16 16 9 0 14 -5 12 -12z m-96 -30 c-15 -15
-26 -4 -18 18 5 13 9 15 18 6 9 -9 9 -15 0 -24z m-42 1 c0 -5 -4 -9 -10 -9 -5
0 -10 7 -10 16 0 8 5 12 10 9 6 -3 10 -10 10 -16z m-40 -4 c0 -8 -4 -15 -10
-15 -5 0 -10 7 -10 15 0 8 5 15 10 15 6 0 10 -7 10 -15z m-69 -8 c-1 -12 -15
-9 -19 4 -3 6 1 10 8 8 6 -3 11 -8 11 -12z m247 -23 c9 -8 27 -23 39 -32 13
-9 26 -32 29 -49 l7 -33 -51 0 c-43 0 -56 -5 -93 -35 -27 -23 -48 -34 -58 -29
-43 17 -96 24 -122 15 -21 -7 -29 -6 -33 6 -13 33 -5 70 19 93 14 13 25 29 25
36 0 14 67 31 78 20 4 -4 -1 -20 -10 -36 -11 -20 -13 -31 -5 -39 18 -18 27
-13 27 14 0 14 5 25 11 25 7 0 8 -11 4 -30 -4 -19 -3 -30 4 -30 6 0 11 9 11
20 0 11 5 20 10 20 6 0 10 -7 10 -15 0 -8 5 -15 10 -15 14 0 13 23 -2 38 -6 6
-8 15 -4 19 4 5 14 -1 22 -11 7 -11 17 -16 21 -13 3 4 -6 20 -21 36 -20 21
-24 30 -14 34 27 11 68 7 86 -9z m84 -174 c6 -37 3 -40 -41 -40 -25 0 -52 -11
-89 -36 l-52 -37 -60 13 c-32 7 -70 10 -84 8 -21 -4 -25 -1 -29 31 -2 20 1 40
7 44 11 7 53 5 126 -8 29 -5 42 -1 75 24 32 25 50 30 91 31 50 0 52 -1 56 -30z
m18 -118 c0 -85 -25 -101 -188 -123 -45 -6 -94 -8 -108 -5 -47 12 -86 115 -48
130 8 3 46 1 83 -6 l68 -12 48 32 c38 25 59 32 97 32 l48 0 0 -48z"/>
<path d="M3180 1550 c0 -5 5 -10 10 -10 6 0 10 5 10 10 0 6 -4 10 -10 10 -5 0
-10 -4 -10 -10z"/>
<path d="M3135 1540 c3 -5 8 -10 11 -10 2 0 4 5 4 10 0 6 -5 10 -11 10 -5 0
-7 -4 -4 -10z"/>
<path d="M3045 1480 c3 -5 8 -10 11 -10 2 0 4 5 4 10 0 6 -5 10 -11 10 -5 0
-7 -4 -4 -10z"/>
<path d="M1330 1480 c-8 -6 -27 -8 -41 -5 -19 4 -37 -3 -72 -30 -26 -20 -47
-40 -47 -45 0 -5 -13 -7 -29 -4 -45 9 -71 -10 -71 -54 0 -29 -7 -43 -30 -64
-19 -17 -30 -36 -30 -53 0 -16 12 -42 30 -62 17 -18 30 -45 30 -59 0 -52 46
-109 99 -124 24 -6 42 -20 53 -40 l17 -30 93 3 c91 2 93 3 106 30 8 15 23 32
35 37 12 5 43 29 70 53 37 36 47 52 47 77 0 22 10 44 30 67 41 46 41 94 1 124
-17 12 -27 28 -24 37 7 28 -21 55 -58 56 -22 1 -40 9 -53 24 -18 22 -109 72
-130 72 -6 0 -18 -5 -26 -10z m55 -34 c11 -7 32 -16 47 -20 29 -7 53 -39 43
-56 -4 -6 -15 -4 -28 4 -12 8 -43 22 -69 31 -44 14 -50 14 -79 0 -17 -9 -37
-14 -45 -11 -7 3 -18 -4 -24 -14 -6 -11 -17 -20 -25 -20 -26 0 -16 36 18 60
27 21 53 28 132 39 6 0 19 -5 30 -13z m20 -87 c34 -16 45 -27 45 -43 0 -41
-15 -37 -76 22 -17 17 -44 15 -44 -3 0 -11 -12 -15 -45 -15 -25 0 -45 -4 -45
-9 0 -5 10 -9 23 -9 84 -1 157 -19 157 -40 0 -5 -6 -16 -13 -27 -10 -12 -16
-14 -21 -7 -11 18 -26 14 -26 -5 0 -10 -4 -24 -9 -32 -13 -21 -71 4 -71 30 0
11 -14 32 -31 47 -49 43 -27 83 56 103 47 11 52 10 100 -12z m-242 -6 c8 -10
19 -31 23 -47 3 -15 22 -43 40 -62 19 -18 34 -40 34 -49 0 -8 11 -21 25 -27
18 -8 24 -17 20 -27 -4 -9 -9 -31 -12 -48 -3 -18 -9 -33 -12 -33 -15 0 -59 56
-65 82 -4 17 -18 34 -36 43 -27 14 -30 20 -30 64 0 27 -3 56 -6 65 -13 34 -21
13 -20 -54 1 -67 3 -72 34 -96 17 -14 32 -32 32 -41 0 -9 16 -31 36 -49 27
-26 31 -34 17 -34 -31 0 -80 37 -87 66 -8 29 -65 108 -73 100 -6 -5 34 -83 47
-91 5 -3 10 -17 10 -29 0 -28 29 -49 91 -67 24 -7 48 -16 53 -21 22 -18 -7
-19 -69 -3 -76 21 -97 41 -119 119 -9 29 -25 61 -36 71 -27 25 -25 59 5 79 17
11 25 26 25 45 0 16 3 36 6 45 8 21 47 20 67 -1z m403 -18 c1 -49 3 -53 27
-57 18 -2 22 -9 20 -38 -2 -50 -2 -50 -18 -50 -20 0 -35 -32 -35 -73 0 -28 -8
-42 -41 -71 -39 -36 -87 -61 -97 -52 -3 3 3 9 13 12 24 9 95 122 95 150 0 13
8 29 18 36 10 7 27 25 36 41 23 35 4 36 -28 2 -13 -14 -26 -25 -30 -25 -7 0 2
64 15 98 7 18 6 23 -3 20 -7 -3 -22 -38 -33 -79 -18 -64 -25 -76 -52 -89 -39
-19 -102 -95 -110 -132 -3 -15 -9 -28 -14 -28 -14 0 -21 40 -14 78 9 50 27 75
79 111 41 29 73 76 91 139 7 24 38 43 65 39 9 -2 15 -14 16 -32z m-89 -236
c-28 -46 -82 -99 -100 -99 -32 0 36 103 85 130 49 26 50 24 15 -31z m-67 -149
c0 -11 -3 -12 -80 -14 -61 -2 -80 2 -80 15 0 5 36 9 80 9 47 0 80 -4 80 -10z"/>
<path d="M1310 1240 c-15 -28 -1 -49 17 -25 15 22 17 45 3 45 -5 0 -14 -9 -20
-20z"/>
<path d="M2466 1458 c-27 -10 -28 -13 -23 -53 6 -38 3 -45 -17 -59 -40 -26
-49 -74 -44 -235 5 -171 15 -198 88 -234 38 -18 62 -22 150 -22 119 0 159 15
193 73 23 40 32 147 22 276 -6 80 -11 101 -30 124 -19 23 -23 36 -18 68 8 62
-7 69 -161 71 -76 1 -143 -2 -160 -9z m271 -22 c16 -16 -18 -21 -130 -21 -119
0 -165 12 -102 27 34 8 223 3 232 -6z m21 -48 c-3 -7 -30 -16 -62 -19 -96 -11
-82 -25 20 -20 37 2 44 -1 65 -31 22 -31 24 -44 27 -188 3 -149 3 -156 -20
-189 -33 -48 -82 -63 -193 -59 -107 5 -150 23 -171 73 -20 50 -20 305 1 345 9
17 20 30 26 30 5 0 15 14 21 31 l10 30 62 -5 c49 -5 127 0 209 13 5 0 7 -5 5
-11z"/>
<path d="M2605 1240 c-27 -11 -71 -19 -97 -20 -79 0 -78 1 -78 -115 0 -56 5
-116 11 -134 16 -45 59 -64 155 -69 97 -5 167 19 184 63 6 15 10 80 10 146 l0
119 -27 11 c-51 19 -106 19 -158 -1z m157 -28 c6 -6 8 -17 5 -26 -5 -13 -12
-13 -56 -1 -46 12 -55 11 -118 -11 -73 -26 -133 -25 -133 1 0 11 12 15 43 15
23 1 65 9 92 20 54 21 147 22 167 2z m-18 -61 l29 -12 -6 -81 c-4 -44 -12 -87
-19 -96 -33 -39 -139 -54 -220 -32 -60 17 -79 51 -76 134 l3 70 55 -2 c39 -1
65 4 90 18 38 22 90 22 144 1z"/>
<path d="M2606 1098 c-8 -33 -9 -33 25 -35 27 -2 30 0 27 25 -4 36 -43 44 -52
10z"/>
<path d="M2500 1056 c0 -32 13 -39 36 -20 17 14 17 15 2 10 -10 -3 -18 -1 -18
4 0 6 5 10 10 10 6 0 10 5 10 10 0 6 -9 10 -20 10 -15 0 -20 -7 -20 -24z"/>
<path d="M2700 1065 c0 -8 7 -15 15 -15 8 0 15 7 15 15 0 8 -7 15 -15 15 -8 0
-15 -7 -15 -15z"/>
<path d="M2611 1041 c-49 -13 -53 -70 -7 -79 19 -4 56 24 56 43 0 24 -25 42
-49 36z"/>
<path d="M2690 990 c0 -5 7 -10 15 -10 8 0 15 5 15 10 0 6 -7 10 -15 10 -8 0
-15 -4 -15 -10z"/>
<path d="M500 1359 c0 -31 36 -89 55 -89 8 0 15 2 15 5 0 13 -40 83 -54 94
-14 12 -16 10 -16 -10z"/>
<path d="M3382 1324 c-24 -48 -21 -74 5 -53 18 16 43 63 43 84 0 31 -27 14
-48 -31z"/>
<path d="M1827 1184 c-82 -27 -145 -72 -173 -125 -8 -16 -14 -56 -14 -89 0
-56 3 -65 30 -90 95 -89 420 -106 569 -31 59 31 74 59 72 138 -2 95 -27 130
-128 180 -72 35 -83 38 -177 40 -86 3 -113 -1 -179 -23z m98 -56 c-14 -29 -25
-66 -25 -83 0 -29 0 -29 63 31 34 34 73 69 87 78 23 15 80 23 80 10 0 -3 -15
-24 -34 -46 -31 -36 -53 -84 -43 -95 3 -2 38 14 78 36 82 45 104 49 131 24 40
-36 9 -86 -85 -133 -50 -26 -55 -31 -27 -25 40 8 87 30 113 53 26 23 21 -1 -5
-25 -57 -51 -140 -73 -284 -73 -128 0 -225 24 -271 66 l-28 25 54 -27 c35 -17
77 -28 115 -30 l61 -4 -61 14 c-116 27 -188 81 -165 124 11 22 91 95 97 90 2
-2 -2 -20 -8 -40 -11 -36 -6 -68 9 -68 4 0 23 23 42 51 40 59 85 99 111 99 18
0 18 -3 -5 -52z m-70 -268 c150 -21 295 -4 382 44 51 29 53 13 3 -21 -51 -35
-95 -45 -232 -50 -141 -6 -242 11 -300 51 -53 36 -42 44 19 15 32 -16 89 -33
128 -39z"/>
<path d="M2231 1044 c0 -11 3 -14 6 -6 3 7 2 16 -1 19 -3 4 -6 -2 -5 -13z"/>
<path d="M1705 1040 c3 -5 8 -10 11 -10 2 0 4 5 4 10 0 6 -5 10 -11 10 -5 0
-7 -4 -4 -10z"/>
<path d="M2170 999 c0 -5 5 -7 10 -4 6 3 10 8 10 11 0 2 -4 4 -10 4 -5 0 -10
-5 -10 -11z"/>
<path d="M1725 990 c3 -5 11 -10 16 -10 6 0 7 5 4 10 -3 6 -11 10 -16 10 -6 0
-7 -4 -4 -10z"/>
<path d="M2090 980 c0 -5 5 -10 10 -10 6 0 10 5 10 10 0 6 -4 10 -10 10 -5 0
-10 -4 -10 -10z"/>
<path d="M692 1143 c2 -10 13 -19 26 -21 24 -4 29 7 10 26 -18 18 -40 15 -36
-5z"/>
<path d="M3203 1153 c-7 -2 -13 -11 -13 -20 0 -21 44 -13 48 10 3 17 -10 21
-35 10z"/>
<path d="M241 904 c-28 -20 -60 -88 -61 -127 0 -33 11 -56 57 -116 36 -48 41
-77 18 -121 -30 -57 -93 -31 -81 34 5 26 3 35 -10 40 -47 18 -64 -1 -64 -75 0
-78 119 -129 183 -79 14 11 35 46 47 77 25 67 19 93 -41 173 -44 58 -46 87 -9
124 16 17 23 18 46 8 23 -11 25 -16 20 -47 -6 -31 -4 -35 18 -41 32 -8 43 0
51 36 19 87 -100 165 -174 114z"/>
<path d="M3645 906 c-81 -37 -85 -82 -21 -254 60 -161 71 -181 110 -197 71
-30 166 26 166 96 0 46 -101 314 -128 341 -25 25 -89 32 -127 14z m133 -201
c33 -86 51 -148 48 -162 -8 -31 -44 -40 -66 -17 -19 19 -110 255 -110 284 0
24 22 41 50 38 22 -3 31 -18 78 -143z"/>
<path d="M3405 821 c-82 -25 -90 -29 -93 -54 -4 -33 16 -43 57 -29 l30 11 27
-87 c15 -48 41 -134 59 -192 32 -108 47 -125 85 -100 17 10 14 21 -59 265
l-39 130 34 14 c34 14 40 25 28 55 -8 21 -23 20 -129 -13z"/>
<path d="M543 808 c-5 -7 -43 -74 -83 -148 -40 -74 -86 -156 -102 -183 -33
-56 -35 -73 -9 -87 31 -16 36 -13 65 39 l27 50 37 -13 37 -13 -3 -56 c-4 -54
-3 -56 23 -63 14 -4 30 -3 35 2 4 5 17 112 30 238 18 189 19 230 8 237 -19 13
-54 11 -65 -3z m3 -170 c-15 -118 -16 -120 -45 -113 -14 4 -27 8 -29 10 -4 3
71 155 76 155 3 0 2 -24 -2 -52z"/>
<path d="M740 748 c-5 -13 -33 -115 -61 -227 -55 -214 -55 -225 -4 -219 17 3
25 23 51 123 16 66 33 127 35 135 3 8 9 -30 13 -85 13 -190 15 -203 44 -210
16 -4 28 -1 33 7 5 7 32 109 60 227 54 223 54 230 7 231 -18 0 -22 -11 -59
-163 -12 -48 -23 -86 -25 -85 -1 2 -8 62 -14 133 -8 100 -15 133 -27 143 -25
18 -42 15 -53 -10z"/>
<path d="M3215 757 c-5 -11 18 -123 51 -247 4 -14 -29 31 -73 100 -69 109 -82
125 -103 122 -14 -1 -29 -7 -35 -13 -14 -14 96 -453 116 -457 8 -1 23 3 32 11
18 12 17 19 -16 152 -19 77 -34 141 -32 143 1 2 17 -23 35 -55 60 -106 133
-213 144 -213 7 0 20 6 29 13 17 11 14 27 -36 232 -53 214 -55 220 -81 223
-16 2 -28 -2 -31 -11z"/>
<path d="M994 696 c-11 -29 1 -50 34 -58 17 -5 32 -13 32 -18 0 -5 -16 -94
-35 -196 -37 -196 -37 -203 8 -204 25 0 32 24 62 195 14 83 28 162 31 177 5
26 8 28 44 22 36 -6 40 -4 46 20 3 15 4 29 1 33 -5 4 -52 14 -180 37 -28 5
-39 3 -43 -8z"/>
<path d="M2885 696 c-48 -9 -61 -15 -63 -31 -3 -23 72 -442 81 -451 4 -4 47 1
97 11 90 17 90 18 90 48 l0 30 -65 -7 c-72 -7 -63 -16 -84 84 -11 51 -8 55 51
64 36 6 39 9 36 34 -3 26 -5 27 -55 24 -57 -3 -57 -3 -68 80 l-7 46 56 12 c62
13 68 17 59 48 -6 25 -31 27 -128 8z"/>
<path d="M2694 660 c-19 -7 -22 -22 -33 -151 -6 -79 -13 -145 -16 -147 -2 -2
-23 58 -47 134 l-44 139 -37 3 c-27 2 -39 -1 -43 -13 -8 -20 44 -447 55 -458
5 -5 18 -6 30 -2 26 8 26 26 5 176 -8 61 -14 115 -12 120 2 6 23 -56 48 -136
39 -130 46 -146 65 -143 18 3 21 13 28 103 4 55 10 129 14 165 6 64 7 62 20
-75 17 -185 17 -185 53 -185 26 0 30 4 30 26 0 31 -37 351 -48 409 -8 43 -26
53 -68 35z"/>
<path d="M1735 608 c-4 -16 -27 -450 -23 -453 11 -9 45 -13 56 -7 8 5 15 44
19 105 l6 96 51 3 c45 3 51 6 54 27 5 29 -12 41 -60 41 l-38 0 0 65 0 64 63 3
c57 3 62 5 65 27 2 13 -2 28 -10 32 -22 14 -178 11 -183 -3z"/>
<path d="M1973 612 c-10 -6 -12 -63 -10 -238 l2 -229 97 -3 c91 -3 97 -1 103
19 10 30 -2 37 -65 41 l-55 3 -3 72 -3 72 48 3 c44 3 48 5 51 30 3 29 -6 34
-73 40 -30 3 -30 4 -30 63 l0 60 60 5 c54 4 60 7 63 29 2 13 -2 28 -10 32 -17
11 -159 11 -175 1z"/>
<path d="M2205 454 c4 -91 10 -198 14 -237 6 -72 6 -72 36 -72 l30 0 0 103 c0
88 2 102 16 102 12 0 26 -27 50 -97 30 -87 37 -98 59 -101 51 -5 52 8 11 114
l-38 99 24 30 c23 27 25 36 20 99 -4 63 -8 73 -36 98 -29 26 -38 28 -112 28
l-81 0 7 -166z m129 93 c9 -7 20 -31 23 -54 4 -33 1 -45 -16 -62 -33 -33 -57
-27 -65 17 -8 49 -8 97 1 105 10 11 38 8 57 -6z"/>
<path d="M1290 529 c-32 -13 -78 -56 -94 -89 -78 -153 75 -320 232 -255 71 30
122 103 122 175 0 69 -52 146 -113 169 -35 13 -113 13 -147 0z m48 -71 c2 -9
-8 -24 -23 -34 -24 -15 -28 -16 -42 -2 -14 14 -13 18 7 38 24 24 53 23 58 -2z
m56 -69 c19 -15 26 -30 26 -54 0 -47 -8 -64 -42 -81 -55 -28 -121 8 -133 71
-7 39 1 50 55 68 59 21 63 21 94 -4z"/>
</g>
</svg>
